<svg width="30" height="31" viewBox="0 0 30 31" fill="none" xmlns="http://www.w3.org/2000/svg">
<path d="M14.5 15C13.4 15 12.4583 14.6083 11.675 13.825C10.8917 13.0417 10.5 12.1 10.5 11C10.5 9.9 10.8917 8.95833 11.675 8.175C12.4583 7.39167 13.4 7 14.5 7C15.6 7 16.5417 7.39167 17.325 8.175C18.1083 8.95833 18.5 9.9 18.5 11C18.5 12.1 18.1083 13.0417 17.325 13.825C16.5417 14.6083 15.6 15 14.5 15ZM6.5 23V20.2C6.5 19.6333 6.646 19.1127 6.938 18.638C7.23 18.1633 7.61733 17.8007 8.1 17.55C9.13333 17.0333 10.1833 16.646 11.25 16.388C12.3167 16.13 13.4 16.0007 14.5 16C15.6 15.9993 16.6833 16.1287 17.75 16.388C18.8167 16.6473 19.8667 17.0347 20.9 17.55C21.3833 17.8 21.771 18.1627 22.063 18.638C22.355 19.1133 22.5007 19.634 22.5 20.2V23H6.5Z" fill="#FFFEFE"/>
</svg>
