<svg width="21" height="20" viewBox="0 0 21 20" fill="none" xmlns="http://www.w3.org/2000/svg">
<path d="M16.8333 17.5L11.5833 12.25C11.1667 12.5833 10.6875 12.8472 10.1458 13.0417C9.60417 13.2361 9.02778 13.3333 8.41667 13.3333C6.90278 13.3333 5.62167 12.8089 4.57333 11.76C3.525 10.7111 3.00056 9.43 3 7.91667C2.99944 6.40333 3.52389 5.12222 4.57333 4.07333C5.62278 3.02444 6.90389 2.5 8.41667 2.5C9.92944 2.5 11.2108 3.02444 12.2608 4.07333C13.3108 5.12222 13.835 6.40333 13.8333 7.91667C13.8333 8.52778 13.7361 9.10417 13.5417 9.64583C13.3472 10.1875 13.0833 10.6667 12.75 11.0833L18 16.3333L16.8333 17.5ZM8.41667 11.6667C9.45833 11.6667 10.3439 11.3022 11.0733 10.5733C11.8028 9.84444 12.1672 8.95889 12.1667 7.91667C12.1661 6.87444 11.8017 5.98917 11.0733 5.26083C10.345 4.5325 9.45944 4.16778 8.41667 4.16667C7.37389 4.16556 6.48861 4.53028 5.76083 5.26083C5.03306 5.99139 4.66833 6.87667 4.66667 7.91667C4.665 8.95667 5.02972 9.84222 5.76083 10.5733C6.49195 11.3044 7.37722 11.6689 8.41667 11.6667Z" fill="black"/>
</svg>
