<svg width="28" height="28" viewBox="0 0 28 28" fill="none" xmlns="http://www.w3.org/2000/svg">
<path d="M4.66668 23.3334C4.02501 23.3334 3.4759 23.1051 3.01934 22.6485C2.56279 22.192 2.33412 21.6425 2.33334 21V7.00002C2.33334 6.35835 2.56201 5.80924 3.01934 5.35269C3.47668 4.89613 4.02579 4.66746 4.66668 4.66669H10.7042C11.0153 4.66669 11.312 4.72502 11.5943 4.84169C11.8767 4.95835 12.1244 5.12363 12.3375 5.33752L14 7.00002H23.3333C23.975 7.00002 24.5245 7.22869 24.9818 7.68602C25.4392 8.14335 25.6675 8.69246 25.6667 9.33335V21C25.6667 21.6417 25.4384 22.1912 24.9818 22.6485C24.5253 23.1059 23.9758 23.3341 23.3333 23.3334H4.66668Z" fill="#FFA629"/>
</svg>
